<?xml version="1.0" standalone="no"?>
<!DOCTYPE svg PUBLIC "-//W3C//DTD SVG 20010904//EN"
 "http://www.w3.org/TR/2001/REC-SVG-20010904/DTD/svg10.dtd">
<svg version="1.0" xmlns="http://www.w3.org/2000/svg"
 width="700.000000pt" height="700.000000pt" viewBox="0 0 700.000000 700.000000"
 preserveAspectRatio="xMidYMid meet">
<metadata>
Created by potrace 1.11, written by Peter Selinger 2001-2013
</metadata>
<g transform="translate(0.000000,700.000000) scale(0.100000,-0.100000)"
fill="#000000" stroke="none">
<path d="M2047 6644 c-1 -1 -22 -5 -45 -9 -217 -32 -402 -162 -516 -362 -135
-240 -180 -605 -126 -1018 5 -38 12 -90 15 -115 6 -45 69 -365 81 -407 4 -15
2 -24 -7 -27 -847 -243 -1342 -599 -1433 -1032 -14 -66 -15 -225 -2 -283 91
-406 539 -748 1294 -987 149 -48 153 -50 147 -74 -18 -71 -74 -352 -79 -401
-4 -31 -8 -65 -10 -75 -2 -11 -7 -46 -10 -79 -4 -33 -9 -73 -11 -90 -11 -92
-4 -432 10 -485 3 -8 7 -33 10 -55 43 -290 205 -535 424 -644 110 -55 180 -72
313 -76 101 -2 177 6 270 30 22 6 39 0 81 -28 222 -148 522 -48 612 203 14 38
22 101 25 181 0 8 30 38 68 66 74 56 163 133 263 229 37 35 71 64 76 64 6 0
26 -15 45 -33 427 -399 787 -619 1136 -695 114 -24 304 -23 396 2 306 85 508
348 570 741 31 195 24 433 -20 760 -5 42 -69 354 -80 392 -5 18 -1 22 28 28
65 15 325 105 454 158 l132 54 37 -20 c60 -30 119 -45 185 -45 159 0 292 79
362 215 43 82 51 115 50 211 -1 72 0 73 53 147 60 84 103 170 131 260 28 92
26 297 -4 389 -121 376 -533 684 -1213 910 -74 24 -154 49 -177 56 -33 8 -42
15 -38 27 24 62 94 467 111 643 9 94 10 322 1 415 -60 639 -455 961 -1019 830
-198 -46 -441 -166 -682 -338 -142 -102 -265 -206 -438 -371 -19 -18 -20 -17
-71 32 -90 87 -140 132 -198 180 -55 45 -58 49 -58 92 0 97 -43 199 -115 273
-117 120 -289 156 -447 93 l-65 -26 -84 29 c-110 38 -239 62 -345 65 -47 1
-86 1 -87 0z m246 -436 c82 -22 78 -17 92 -98 21 -131 144 -261 290 -305 60
-17 188 -13 237 8 l38 16 67 -57 c84 -71 193 -173 193 -181 0 -4 -10 -17 -23
-31 -104 -115 -289 -347 -425 -532 -40 -54 -76 -98 -80 -99 -4 0 -23 -2 -42
-4 -164 -16 -365 -43 -495 -66 -60 -10 -123 -22 -140 -24 -16 -3 -54 -10 -83
-16 -30 -6 -56 -8 -59 -6 -14 15 -84 388 -100 537 -13 118 -9 417 6 490 7 36
15 73 17 83 22 117 113 250 194 284 79 35 183 35 313 1z m2735 -7 c137 -70
213 -274 216 -576 2 -260 -16 -404 -101 -788 -5 -23 -10 -27 -27 -23 -63 16
-384 68 -531 86 -93 12 -181 23 -195 25 -14 2 -37 4 -52 4 -22 1 -42 22 -118
126 -79 108 -293 381 -309 395 -3 3 -33 36 -65 74 l-60 68 65 60 c207 194 445
368 629 460 157 80 254 111 365 121 52 4 144 -12 183 -32z m-1347 -1124 c43
-54 79 -101 79 -105 0 -4 -119 -7 -264 -7 -229 0 -263 2 -256 15 4 8 64 81
132 163 l123 149 54 -58 c29 -33 89 -103 132 -157z m244 -531 c17 -2 58 -4 91
-5 l62 -1 79 -122 c167 -257 316 -514 438 -759 l64 -126 -66 -129 c-96 -189
-207 -387 -318 -569 -152 -249 -192 -305 -218 -305 -12 -1 -69 -4 -127 -8
-136 -9 -785 -9 -915 1 -55 4 -101 11 -103 15 -1 5 -30 48 -62 96 -33 48 -60
89 -60 91 0 3 -20 36 -45 75 -25 39 -45 72 -45 75 0 2 -13 23 -29 47 -45 67
-225 394 -281 510 l-51 105 70 134 c147 286 326 594 454 782 49 72 64 87 86
88 62 1 236 11 239 13 4 4 701 -4 737 -8z m-1538 -73 c-10 -19 -163 -283 -189
-326 -15 -26 -28 -50 -28 -53 0 -4 -10 -23 -22 -42 l-22 -35 -19 44 c-44 103
-127 343 -120 349 7 7 113 28 228 46 22 3 58 10 80 14 54 10 97 12 92 3z
m2428 -24 c105 -18 193 -35 197 -38 6 -5 -86 -271 -125 -360 l-15 -35 -26 53
c-23 44 -111 197 -216 374 -12 20 -18 37 -13 37 4 0 94 -14 198 -31z m-3220
-181 c46 -145 190 -509 261 -663 15 -33 27 -64 27 -70 0 -5 -22 -62 -50 -125
-71 -162 -142 -341 -203 -510 -28 -80 -53 -146 -54 -147 -1 -2 -76 21 -167 50
-647 211 -1021 493 -996 754 17 181 222 374 573 543 115 55 232 100 429 166
88 29 161 53 161 54 1 0 9 -24 19 -52z m3994 -5 c449 -145 800 -347 929 -535
89 -129 89 -265 1 -389 -15 -21 -26 -28 -38 -23 -9 3 -44 8 -79 9 -184 9 -353
-111 -409 -290 -7 -22 -13 -50 -13 -62 0 -17 -15 -27 -77 -53 -138 -58 -254
-98 -469 -165 -5 -1 -18 20 -28 49 -51 148 -136 369 -207 535 -43 102 -79 190
-79 195 0 5 38 97 84 205 46 108 114 281 152 384 l68 188 29 -7 c17 -3 78 -22
136 -41z m-3393 -1335 c37 -68 98 -173 135 -235 37 -62 62 -110 56 -108 -7 2
-34 6 -62 9 -27 3 -75 10 -105 16 -30 6 -68 13 -85 16 -101 16 -140 25 -147
32 -4 4 20 82 53 172 33 91 65 177 71 193 5 15 11 27 13 27 2 0 34 -55 71
-122z m2756 -81 c36 -100 63 -185 60 -189 -9 -9 -368 -70 -386 -66 -10 2 5 34
49 108 35 58 90 152 121 210 63 117 74 133 83 125 3 -4 36 -88 73 -188z
m-3037 -597 c35 -9 71 -15 190 -35 27 -4 47 -8 120 -20 23 -4 141 -20 285 -39
19 -2 67 -8 107 -11 l72 -7 110 -148 c98 -131 226 -296 241 -310 17 -16 170
-200 170 -205 0 -13 -238 -222 -328 -289 -52 -38 -54 -38 -96 -26 -105 29
-238 6 -335 -58 -63 -42 -133 -132 -156 -201 -16 -48 -18 -50 -66 -60 -213
-46 -369 51 -434 269 -52 177 -56 529 -10 771 3 13 7 41 11 64 3 22 12 72 20
110 9 39 17 79 19 90 14 66 28 115 33 115 4 0 25 -5 47 -10z m3235 -47 c6 -27
14 -59 16 -73 3 -14 13 -65 23 -115 11 -49 24 -133 31 -185 6 -52 15 -122 20
-155 9 -63 6 -372 -4 -415 -3 -14 -11 -50 -16 -80 -31 -157 -109 -277 -210
-324 -69 -32 -209 -29 -318 7 -136 45 -281 118 -425 216 -152 103 -482 382
-475 402 2 4 21 27 43 51 22 24 52 57 65 74 219 271 276 344 337 429 l72 101
118 12 c65 7 132 14 148 17 17 2 82 11 145 20 108 15 373 61 395 69 17 6 22
-2 35 -51z m-1641 -104 c138 0 251 -3 251 -8 0 -4 -8 -16 -17 -27 -10 -11 -47
-55 -82 -99 -79 -97 -154 -180 -163 -180 -18 0 -271 309 -261 318 3 4 9 4 14
1 4 -2 121 -5 258 -5z"/>
<path d="M3370 4134 c-276 -56 -487 -318 -483 -600 2 -176 58 -309 183 -434
115 -116 250 -174 411 -179 107 -3 190 14 288 60 172 80 317 275 339 454 27
221 -37 408 -189 549 -149 138 -344 191 -549 150z"/>
</g>
</svg>
