<?xml version="1.0" encoding="UTF-8" standalone="no"?>
<!-- Generator: Adobe Illustrator 21.0.0, SVG Export Plug-In . SVG Version: 6.00 Build 0)  -->

<svg
   xmlns:dc="http://purl.org/dc/elements/1.1/"
   xmlns:cc="http://creativecommons.org/ns#"
   xmlns:rdf="http://www.w3.org/1999/02/22-rdf-syntax-ns#"
   xmlns:svg="http://www.w3.org/2000/svg"
   xmlns="http://www.w3.org/2000/svg"
   xmlns:sodipodi="http://sodipodi.sourceforge.net/DTD/sodipodi-0.dtd"
   xmlns:inkscape="http://www.inkscape.org/namespaces/inkscape"
   version="1.1"
   id="Capa_1"
   x="0px"
   y="0px"
   viewBox="0 0 42 42"
   xml:space="preserve"
   width="42"
   height="42"
   sodipodi:docname="atom.svg"
   inkscape:export-filename="C:\Users\ander\Desktop\atom.png"
   inkscape:export-xdpi="200"
   inkscape:export-ydpi="200"
   inkscape:version="0.92.3 (2405546, 2018-03-11)"><metadata
   id="metadata59"><rdf:RDF><cc:Work
       rdf:about=""><dc:format>image/svg+xml</dc:format><dc:type
         rdf:resource="http://purl.org/dc/dcmitype/StillImage" /><dc:title></dc:title></cc:Work></rdf:RDF></metadata><defs
   id="defs57" /><sodipodi:namedview
   pagecolor="#ffffff"
   bordercolor="#666666"
   borderopacity="1"
   objecttolerance="10"
   gridtolerance="10"
   guidetolerance="10"
   inkscape:pageopacity="0"
   inkscape:pageshadow="2"
   inkscape:window-width="1920"
   inkscape:window-height="986"
   id="namedview55"
   showgrid="false"
   inkscape:zoom="10.673584"
   inkscape:cx="54.702303"
   inkscape:cy="30.830459"
   inkscape:window-x="-11"
   inkscape:window-y="-11"
   inkscape:window-maximized="1"
   inkscape:current-layer="Capa_1" />
<g
   id="g52"
   inkscape:export-xdpi="7.8800001"
   inkscape:export-ydpi="7.8800001"
   transform="matrix(0.08203125,0,0,0.08203135,0,-1.7354e-5)">
	<g
   id="g10">
		<g
   id="g8">
			<g
   id="g6">
				<g
   id="g4">
					<path
   style="fill:#a0deb0"
   d="m 256,148.54 c -123.6,0 -256,36.899 -256,105 0,68.099 132.4,105 256,105 123.6,0 256,-36.901 256,-105 0,-68.1 -132.4,-105 -256,-105 z m 0,180 c -128.699,0 -226,-39.6 -226,-75 0,-35.4 97.301,-75 226,-75 128.699,0 226,39.6 226,75 0,35.4 -97.301,75 -226,75 z"
   id="path2"
   inkscape:connector-curvature="0" />
				</g>
			</g>
		</g>
	</g>
	<g
   id="g14">
		<path
   style="fill:#3e5959"
   d="m 256,208.54 c -24.901,0 -45,20.099 -45,45 0,24.899 20.099,45 45,45 24.901,0 45,-20.101 45,-45 0,-24.9 -20.099,-45 -45,-45 z"
   id="path12"
   inkscape:connector-curvature="0" />
	</g>
	<path
   style="fill:#80d398"
   d="m 512,253.54 c 0,68.099 -132.4,105 -256,105 v -30 c 128.699,0 226,-39.6 226,-75 0,-35.4 -97.301,-75 -226,-75 v -30 c 123.6,0 256,36.9 256,105 z"
   id="path16"
   inkscape:connector-curvature="0" />
	<path
   style="fill:#293939"
   d="m 301,253.54 c 0,24.899 -20.099,45 -45,45 v -90 c 24.901,0 45,20.1 45,45 z"
   id="path18"
   inkscape:connector-curvature="0" />
	<g
   id="g24">
		<g
   id="g22">
			<path
   style="fill:#ffb99c"
   d="m 383.5,32.741 c -26.7,-15.3 -64.799,-4.501 -107.401,30.298 -6.599,5.7 -13.5,11.7 -20.099,18.301 -32.1,30.899 -63.6,72.599 -90.901,119.7 -61.8,107.1 -95.698,239.099 -36.599,273.3 7.8,4.501 16.8,6.899 26.7,6.899 22.8,0 50.7,-12.599 80.7,-37.2 6.599,-5.7 13.5,-11.7 20.099,-18.3 32.1,-30.901 63.6,-72.599 90.901,-119.7 61.801,-107.099 95.699,-239.1 36.6,-273.298 z M 321.099,291.04 C 301.3,325.24 279.1,356.44 256,382.239 c -12.9,14.7 -26.1,27.599 -39.3,38.401 -31.199,25.8 -58.801,36.299 -73.2,27.9 -30.601,-17.701 -16.8,-120.901 47.401,-232.5 19.799,-34.2 41.999,-65.4 65.099,-91.201 12.9,-14.7 26.1,-27.599 39.3,-38.399 24,-19.801 45.901,-30.601 61.199,-30.601 4.501,0 8.701,0.901 12.001,2.701 30.601,17.699 16.8,120.899 -47.401,232.5 z"
   id="path20"
   inkscape:connector-curvature="0" />
		</g>
	</g>
	<path
   style="fill:#ff9468"
   d="M 346.901,306.04 C 319.6,353.14 288.1,394.839 256,425.74 v -43.5 c 23.101,-25.8 45.3,-56.999 65.099,-91.199 64.2,-111.601 78.001,-214.801 47.401,-232.5 -3.3,-1.8 -7.5,-2.701 -12.001,-2.701 -15.298,0 -37.2,10.8 -61.199,30.601 -13.2,10.8 -26.4,23.699 -39.3,38.399 V 81.341 C 262.599,74.74 269.5,68.74 276.099,63.04 318.701,28.24 356.8,17.44 383.5,32.741 442.599,66.939 408.701,198.94 346.901,306.04 Z"
   id="path26"
   inkscape:connector-curvature="0" />
	<g
   id="g36">
		<g
   id="g34">
			<g
   id="g32">
				<g
   id="g30">
					<path
   style="fill:#fffb7c"
   d="M 346.901,201.04 C 319.6,153.94 288.1,112.24 256,81.341 249.401,74.74 242.5,68.74 235.901,63.04 193.299,28.24 155.2,17.44 128.5,32.741 69.401,66.94 103.299,198.94 165.099,306.041 192.4,353.14 223.9,394.839 256,425.74 c 6.599,6.599 13.5,12.599 20.099,18.3 30,24.6 57.9,37.2 80.7,37.2 9.901,0 18.9,-2.399 26.7,-6.899 59.1,-34.202 25.202,-166.201 -36.598,-273.301 z m 21.599,247.5 c -14.399,8.399 -42.001,-2.1 -73.2,-27.9 C 282.1,409.839 268.9,396.939 256,382.239 232.899,356.439 210.7,325.24 190.901,291.04 126.7,179.439 112.899,76.239 143.5,58.54 c 3.3,-1.8 7.5,-2.701 12.001,-2.701 15.298,0 37.2,10.8 61.199,30.601 13.2,10.8 26.4,23.699 39.3,38.399 23.101,25.801 45.3,57.001 65.099,91.201 64.201,111.599 78.002,214.799 47.401,232.5 z"
   id="path28"
   inkscape:connector-curvature="0" />
				</g>
			</g>
		</g>
	</g>
	<path
   style="fill:#ffd946"
   d="m 383.5,474.34 c -7.8,4.501 -16.8,6.899 -26.7,6.899 -22.8,0 -50.7,-12.599 -80.7,-37.2 -6.599,-5.7 -13.5,-11.7 -20.099,-18.3 v -43.5 c 12.9,14.7 26.1,27.599 39.3,38.401 31.199,25.8 58.801,36.299 73.2,27.9 30.601,-17.701 16.8,-120.901 -47.401,-232.5 -19.799,-34.2 -41.999,-65.4 -65.099,-91.201 V 81.341 c 32.1,30.899 63.6,72.599 90.901,119.7 61.799,107.099 95.697,239.098 36.598,273.299 z"
   id="path38"
   inkscape:connector-curvature="0" />
	<g
   id="g42">
		<path
   style="fill:#3e5959"
   d="m 203.5,88.54 c -16.538,0 -30,-13.462 -30,-30 0,-16.538 13.462,-30 30,-30 16.538,0 30,13.462 30,30 0,16.538 -13.462,30 -30,30 z"
   id="path40"
   inkscape:connector-curvature="0" />
	</g>
	<g
   id="g46">
		<path
   style="fill:#3e5959"
   d="m 196,486.04 c -16.538,0 -30,-13.462 -30,-30 0,-16.538 13.462,-30 30,-30 16.538,0 30,13.462 30,30 0,16.538 -13.462,30 -30,30 z"
   id="path44"
   inkscape:connector-curvature="0" />
	</g>
	<g
   id="g50">
		<path
   style="fill:#293939"
   d="m 467,328.54 c -16.538,0 -30,-13.462 -30,-30 0,-16.538 13.462,-30 30,-30 16.538,0 30,13.462 30,30 0,16.538 -13.462,30 -30,30 z"
   id="path48"
   inkscape:connector-curvature="0" />
	</g>
</g>















</svg>